# AST/ASF file generated using VICON BodyLanguage
# -----------------------------------------------
:version 1.10
:name VICON
:units
  mass 1.0
  length 0.45
  angle deg
:documentation
   .ast/.asf automatically generated from VICON data using
   VICON BodyBuilder and BodyLanguage model FoxedUp or BRILLIANT.MOD
:root
   order TX TY TZ RX RY RZ
   axis XYZ
   position 0 0 0  
   orientation 0 0 0 
:bonedata
  begin
     id 1 
     name lhipjoint
     direction 0.693937 -0.600361 0.397515 
     length 2.37164 
     axis 0 0 0  XYZ
  end
  begin
     id 2 
     name lfemur
     direction 0.34202 -0.939693 0  
     length 6.18497  
     axis 0 0 20  XYZ
    dof rx ry rz
    limits (-160.0 20.0)
           (-70.0 70.0)
           (-60.0 70.0)
  end
  begin
     id 3 
     name ltibia
     direction 0.34202 -0.939693 0   
     length 6.91601   
     axis 0 0 20   XYZ
    dof rx
    limits (-10.0 170.0)
  end
  begin
     id 4 
     name lfoot
     direction 0.0978718 -0.2689 0.958182   
     length 1.81453   
     axis -90 7.62852e-016 20   XYZ
    dof rx rz
    limits (-45.0 90.0)
           (-70.0 20.0)
  end
  begin
     id 5 
     name ltoes
     direction 1.53569e-011 -4.21951e-011 1   
     length 0.912052   
     axis -90 7.62852e-016 20   XYZ
    dof rx
    limits (-90.0 20.0)
  end
  begin
     id 6 
     name rhipjoint
     direction -0.643996 -0.637876 0.422354   
     length 2.23216  
     axis 0 0 0  XYZ 
  end
  begin
     id 7 
     name rfemur
     direction -0.34202 -0.939693 0   
     length 6.15404   
     axis 0 0 -20   XYZ
    dof rx ry rz
    limits (-160.0 20.0)
           (-70.0 70.0)
           (-70.0 60.0)
  end
  begin
     id 8 
     name rtibia
     direction -0.34202 -0.939693 0   
     length 6.86744   
     axis 0 0 -20   XYZ
    dof rx
    limits (-10.0 170.0)
 end
 begin
     id 9 
     name rfoot
     direction -0.118701 -0.326127 0.937844   
     length 1.9243  
     axis -90 -7.62852e-016 -20   XYZ
    dof rx rz
    limits (-45.0 90.0)
           (-20.0 70.0)
  end
  begin
     id 10 
     name rtoes
     direction -1.5356e-011 -4.2181e-011 1   
     length 0.958865   
     axis -90 -7.62852e-016 -20   XYZ
    dof rx
    limits (-90.0 20.0)
  end
  begin
     id 11 
     name lowerback
     direction 0.0310826 0.968686 -0.246334   
     length 2.00021   
     axis 0 0 0   XYZ
    dof rx ry rz
    limits (-20.0 45.0)
           (-30.0 30.0)
           (-30.0 30.0)
  end
  begin
     id 12 
     name upperback
     direction -0.0152834 0.999474 -0.0286152   
     length 2.03728   
     axis 0 0 0   XYZ
    dof rx ry rz
    limits (-20.0 45.0)
           (-30.0 30.0)
           (-30.0 30.0)
  end
  begin
     id 13 
     name thorax
     direction -0.0323701 0.996236 0.0804149   
     length 2.16   
     axis 0 0 0   XYZ
    dof rx ry rz
    limits (-20.0 45.0)
           (-30.0 30.0)
           (-30.0 30.0)
  end
  begin
     id 14 
     name lowerneck
     direction 0.0307935 0.982251 0.185027   
     length 1.43558   
     axis 0 0 0   XYZ
    dof rx ry rz
    limits (-20.0 45.0)
           (-30.0 30.0)
           (-30.0 30.0)
  end
  begin
     id 15 
     name upperneck
     direction -0.0927153 0.994775 0.0427454   
     length 1.44603   
     axis 0 0 0   XYZ
    dof rx ry rz
    limits (-20.0 45.0)
           (-30.0 30.0)
           (-30.0 30.0)
  end
  begin
     id 16
     name head
     direction -0.0341265 0.999406 -0.00472033  
     length 1.45931  
     axis 0 0 0   XYZ
    dof rx ry rz
    limits (-20.0 45.0)
           (-30.0 30.0)
           (-30.0 30.0)
  end
  begin
     id 17 
     name lclavicle
     direction 0.820755 0.555306 -0.134151  
     length 2.66075  
     axis 0 0 0   XYZ
    dof ry rz
    limits (-20.0 10.0)
           (0.0 20.0)
  end
  begin
     id 18 
     name lhumerus
     direction 1 -4.48971e-011 5.24853e-027   
     length 5.0546   
     axis -180 -30 -90   XYZ
    dof rx ry rz
    limits (-60.0 90.0)
           (-90.0 90.0)
           (-90.0 90.0)
  end
  begin
     id 19
     name lradius
     direction 1 -4.48971e-011 2.76575e-028   
     length 3.39013   
     axis -180 -30 -90   XYZ
    dof rx
    limits (-10.0 170.0)
  end
  begin
     id 20
     name lwrist
     direction 1 -4.48939e-011 -2.27826e-027   
     length 1.69507   
     axis 2.17013e-015 90 90   XYZ
    dof ry
    limits (-180.0 0.0)
 end
  begin
     id 21 
     name lhand
     direction 1 -4.49009e-011 -4.55652e-027   
     length 0.572425   
     axis 2.90745e-015 90 90   XYZ
    dof rx rz
    limits (-90.0 90.0)
           (-45.0 45.0)
  end
  begin
     id 22 
     name lfingers
     direction 1 -4.48955e-011 -9.11303e-027   
     length 0.461504   
     axis 5.81489e-015 90 90   XYZ
    dof rx
    limits (0.0 90.0)
  end
  begin
     id 23
     name lthumb
     direction 0.707107 -6.34929e-011 0.707107   
     length 0.66263   
     axis -90 45 2.85299e-015   XYZ
    dof rx rz
    limits (-45.0 45.0)
           (-45.0 45.0)
  end
  begin
     id 24 
     name rclavicle
     direction -0.754477 0.632921 -0.173712   
     length 2.73081  
     axis 0 0 0   XYZ 
    dof ry rz
    limits (-10.0 20.0)
           (-20.0 0.0)
  end
  begin
     id 25 
     name rhumerus
     direction -1 -4.48969e-011 5.1496e-027  
     length 5.0701   
     axis -180 30 90   XYZ
    dof rx ry rz
    limits (-90.0 60.0)
           (-90.0 90.0)
           (-90.0 90.0)
  end
  begin
     id 26 
     name rradius
     direction -1 -4.48967e-011 -7.15624e-028   
     length 3.14957   
     axis -180 30 90   XYZ
    dof rx
    limits (-10.0 170.0)
  end
  begin
     id 27 
     name rwrist
     direction -1 -4.48938e-011 -2.27826e-027   
     length 1.57479   
     axis 2.17013e-015 -90 -90   XYZ
    dof ry
    limits (-180.0 0.0)
  end
  begin
     id 28
     name rhand
     direction -1 -4.49008e-011 -4.55652e-027   
     length 0.718191   
     axis 2.90745e-015 -90 -90   XYZ
    dof rx rz
    limits (-90.0 90.0)
           (-45.0 45.0)
  end
  begin
     id 29
     name rfingers
     direction -1 -4.48953e-011 -9.11303e-027   
     length 0.579024   
     axis 5.81489e-015 -90 -90   XYZ
    dof rx
    limits (0.0 90.0)
  end
  begin
     id 30
     name rthumb
     direction -0.707107 -6.34937e-011 0.707107   
     length 0.831366   
     axis -90 -45 -2.85299e-015   XYZ
    dof rx rz
    limits (-45.0 45.0)
           (-45.0 45.0)
  end
:hierarchy
  begin
    root lhipjoint rhipjoint lowerback
    lhipjoint lfemur
    lfemur ltibia
    ltibia lfoot
    lfoot ltoes
    rhipjoint rfemur
    rfemur rtibia
    rtibia rfoot
    rfoot rtoes
    lowerback upperback
    upperback thorax
    thorax lowerneck lclavicle rclavicle
    lowerneck upperneck
    upperneck head
    lclavicle lhumerus
    lhumerus lradius
    lradius lwrist
    lwrist lhand lthumb
    lhand lfingers
    rclavicle rhumerus
    rhumerus rradius
    rradius rwrist
    rwrist rhand rthumb
    rhand rfingers
  end

#!OML:ASF H:\Male1\Project 1\Capture day 1\Session 1\Male1.ASF
:FULLY-SPECIFIED
:DEGREES
169
root 11.0372 15.343 3.01588 376.054 -87.6096 -377.734
lowerback 5.41938 2.69638 -0.261666
upperback 3.53774 3.4787 -2.40804
thorax 0.741643 1.72007 -2.48754
lowerneck -1.96329 6.48377 10.3198
upperneck 1.82547 8.39843 -3.17435
head 1.54497 4.22737 -2.60689
rclavicle 2.21645e-014 1.43125e-014
rhumerus -33.0032 5.80053 -90.8602
rradius 34.8942
rwrist -18.2104
rhand -16.6759 0.610097
rfingers 7.12502
rthumb 9.54803 -29.1536
lclavicle 2.21645e-014 1.43125e-014
lhumerus -33.4967 5.28365 76.937
lradius 19.2359
lwrist -10.8754
lhand -18.3332 14.362
lfingers 7.12502
lthumb 7.94877 44.1925
rfemur 11.4613 4.42098 27.4832
rtibia 28.687
rfoot -13.8074 -18.555
rtoes -33.496
lfemur -18.7801 -16.5046 -19.7066
ltibia 29.0432
lfoot -15.1137 21.3378
ltoes -4.99655
170
root 10.8488 15.3556 3.07211 373.426 -87.807 -375.2
lowerback 5.42721 2.61403 -0.485067
upperback 3.53923 3.35613 -2.52096
thorax 0.727646 1.65468 -2.4741
lowerneck -2.02781 6.57392 10.0582
upperneck 1.83248 8.50358 -2.70658
head 1.52594 4.2816 -2.39761
rclavicle 3.17062e-014 -2.70347e-014
rhumerus -32.9382 5.32634 -90.7982
rradius 34.3366
rwrist -17.8864
rhand -16.4902 1.45668
rfingers 7.12502
rthumb 9.72726 -28.2987
lclavicle 3.17062e-014 -2.70347e-014
lhumerus -32.3133 8.37567 75.7552
lradius 17.6546
lwrist -14.018
lhand -18.2988 14.3967
lfingers 7.12502
lthumb 7.98192 44.226
rfemur 8.77549 3.60055 26.5574
rtibia 34.3027
rfoot -11.5407 -16.917
rtoes -31.8677
lfemur -17.5759 -15.7318 -20.3851
ltibia 28.666
lfoot -14.9884 20.9553
ltoes -5.40948
171
root 10.6598 15.3662 3.12623 357.108 -88.1682 -359.176
lowerback 5.58894 2.55193 -1.2359
upperback 3.64076 3.22738 -2.68572
thorax 0.705309 1.57435 -2.22417
lowerneck -2.14368 6.68812 10.0278
upperneck 1.93457 8.64092 -2.63278
head 1.58341 4.35239 -2.35679
rclavicle -4.87022e-015 3.18055e-015
rhumerus -32.9033 5.39409 -90.8164
rradius 33.9742
rwrist -17.7615
rhand -16.2187 1.71471
rfingers 7.12502
rthumb 9.98916 -28.0283
lclavicle -4.87022e-015 3.18055e-015
lhumerus -31.3311 10.9395 75.0644
lradius 16.5938
lwrist -16.3792
lhand -18.5867 14.5476
lfingers 7.12502
lthumb 7.70407 44.3873
rfemur 6.1131 3.08198 25.2456
rtibia 39.9179
rfoot -8.36103 -15.5949
rtoes -30.6182
lfemur -16.01 -15.0339 -21.5818
ltibia 28.08
lfoot -15.2013 20.6959
ltoes -5.13752
172
root 10.4739 15.3745 3.17748 334.446 -88.2007 -336.854
lowerback 5.86724 2.43701 -2.09538
upperback 3.75004 3.01432 -2.8399
thorax 0.621647 1.44862 -1.90345
lowerneck -2.24251 6.89462 9.97113
upperneck 1.93142 8.90669 -2.60599
head 1.61305 4.48423 -2.32361
rclavicle 3.4191e-014 -2.06736e-014
rhumerus -32.9865 5.55166 -90.8145
rradius 33.9367
rwrist -17.5103
rhand -15.7797 1.53975
rfingers 7.12502
rthumb 10.4127 -28.1824
lclavicle 3.4191e-014 -2.06736e-014
lhumerus -30.4344 12.2354 75.0754
lradius 16.1695
lwrist -17.3384
lhand -18.5993 14.8399
lfingers 7.12502
lthumb 7.69195 44.68
rfemur 3.47552 2.60001 23.9397
rtibia 45.3986
rfoot -5.57268 -14.5934
rtoes -30.3289
lfemur -14.2661 -14.4492 -22.8496
ltibia 27.1324
lfoot -15.3267 20.4427
ltoes -4.12928
173
root 10.2898 15.3782 3.22627 310.612 -87.6741 -313.452
lowerback 6.27249 2.3678 -3.15842
upperback 3.88771 2.83309 -3.13858
thorax 0.501399 1.3337 -1.62381
lowerneck -2.43407 7.02735 9.95137
upperneck 2.00228 9.05777 -2.46895
head 1.67112 4.56131 -2.26056
rclavicle 2.5842e-014 1.51076e-014
rhumerus -33.1114 5.45291 -90.8264
rradius 34.0788
rwrist -17.1542
rhand -15.2075 1.35528
rfingers 7.12502
rthumb 10.9646 -28.3384
lclavicle 2.5842e-014 1.51076e-014
lhumerus -29.5334 11.608 75.8406
lradius 16.5029
lwrist -16.6677
lhand -18.166 15.5735
lfingers 7.12502
lthumb 8.11014 45.3978
rfemur 1.07449 2.03232 22.366
rtibia 50.5219
rfoot -3.83102 -14.0221
rtoes -29.3161
lfemur -12.3338 -14.1966 -24.4652
ltibia 25.9892
lfoot -15.1327 20.4915
ltoes -4.1175
174
root 10.1089 15.3829 3.26899 295.214 -87.0626 -298.526
lowerback 6.76335 2.40514 -4.15832
upperback 4.00859 2.77867 -3.42569
thorax 0.323972 1.28314 -1.37901
lowerneck -2.22076 7.13902 9.8416
upperneck 1.65319 9.22474 -2.17319
head 1.50569 4.63849 -2.15067
rclavicle -9.64106e-015 1.51076e-014
rhumerus -33.1896 5.31972 -90.875
rradius 34.164
rwrist -16.9228
rhand -14.8216 1.41567
rfingers 7.12502
rthumb 11.3368 -28.2579
lclavicle -9.64106e-015 1.51076e-014
lhumerus -28.5896 9.67207 77.0504
lradius 17.1543
lwrist -15.1409
lhand -17.8071 16.224
lfingers 7.12502
lthumb 8.45649 46.0347
rfemur -1.25741 1.74255 21.0913
rtibia 55.1154
rfoot -4.92419 -14.7439
rtoes -33.3622
lfemur -10.3422 -14.2036 -25.949
ltibia 24.7801
lfoot -14.9237 20.953
ltoes -4.2923
175
root 9.93541 15.393 3.30982 285.431 -86.7684 -289.082
lowerback 7.13144 2.43303 -4.8018
upperback 4.12059 2.73967 -3.5375
thorax 0.214281 1.24722 -1.14791
lowerneck -1.74077 7.27244 9.68932
upperneck 1.03239 9.46018 -2.04072
head 1.2176 4.74196 -2.10123
rclavicle -1.39149e-015 6.36111e-015
rhumerus -33.1647 5.40359 -90.9169
rradius 34.2748
rwrist -16.8717
rhand -14.6768 1.37914
rfingers 7.12502
rthumb 11.4765 -28.2867
lclavicle -1.39149e-015 6.36111e-015
lhumerus -27.5927 7.18937 78.4865
lradius 17.9959
lwrist -13.1651
lhand -17.7192 16.4116
lfingers 7.12502
lthumb 8.54136 46.2189
rfemur -3.74568 1.70796 20.4495
rtibia 59.0515
rfoot -6.4172 -16.2385
rtoes -30.688
lfemur -8.54693 -14.2572 -26.9102
ltibia 23.575
lfoot -14.9907 21.6103
ltoes -3.00749
